<mxfile host="Electron" agent="Mozilla/5.0 (Windows NT 10.0; Win64; x64) AppleWebKit/537.36 (KHTML, like Gecko) draw.io/26.0.4 Chrome/128.0.6613.186 Electron/32.2.5 Safari/537.36" version="26.0.4">
  <diagram name="Page-1" id="iFmcpbmMmoSnmK7_FyK6">
    <mxGraphModel dx="2603" dy="1515" grid="1" gridSize="10" guides="1" tooltips="1" connect="1" arrows="1" fold="1" page="1" pageScale="1" pageWidth="850" pageHeight="1100" math="0" shadow="0">
      <root>
        <mxCell id="0" />
        <mxCell id="1" parent="0" />
        <mxCell id="r11OAuE-Dpr2aQKvOHdi-209" value="" style="rounded=0;whiteSpace=wrap;html=1;" vertex="1" parent="1">
          <mxGeometry x="464" y="650" width="300" height="220" as="geometry" />
        </mxCell>
        <mxCell id="r11OAuE-Dpr2aQKvOHdi-1" value="1. návrh" style="text;html=1;align=center;verticalAlign=middle;whiteSpace=wrap;rounded=0;" vertex="1" parent="1">
          <mxGeometry x="133" y="360" width="60" height="30" as="geometry" />
        </mxCell>
        <mxCell id="r11OAuE-Dpr2aQKvOHdi-2" value="2. návrh" style="text;html=1;align=center;verticalAlign=middle;whiteSpace=wrap;rounded=0;" vertex="1" parent="1">
          <mxGeometry x="633" y="360" width="60" height="30" as="geometry" />
        </mxCell>
        <mxCell id="r11OAuE-Dpr2aQKvOHdi-3" value="3. návrh" style="text;html=1;align=center;verticalAlign=middle;whiteSpace=wrap;rounded=0;" vertex="1" parent="1">
          <mxGeometry x="145" y="1140" width="60" height="30" as="geometry" />
        </mxCell>
        <mxCell id="r11OAuE-Dpr2aQKvOHdi-4" value="" style="rounded=0;whiteSpace=wrap;html=1;" vertex="1" parent="1">
          <mxGeometry x="23" y="420" width="300" height="90" as="geometry" />
        </mxCell>
        <mxCell id="r11OAuE-Dpr2aQKvOHdi-18" value="global" style="text;html=1;align=left;verticalAlign=middle;whiteSpace=wrap;rounded=0;" vertex="1" parent="1">
          <mxGeometry x="22" y="391" width="60" height="30" as="geometry" />
        </mxCell>
        <mxCell id="r11OAuE-Dpr2aQKvOHdi-19" value="" style="rounded=0;whiteSpace=wrap;html=1;" vertex="1" parent="1">
          <mxGeometry x="23" y="539" width="300" height="90" as="geometry" />
        </mxCell>
        <mxCell id="r11OAuE-Dpr2aQKvOHdi-20" value="" style="group" vertex="1" connectable="0" parent="1">
          <mxGeometry x="43" y="539" width="57" height="89" as="geometry" />
        </mxCell>
        <mxCell id="r11OAuE-Dpr2aQKvOHdi-21" value="&lt;font style=&quot;font-size: 23px;&quot;&gt;●&lt;/font&gt;" style="rounded=0;whiteSpace=wrap;html=1;fillColor=#1ba1e2;fontColor=#ffffff;strokeColor=#006EAF;" vertex="1" parent="r11OAuE-Dpr2aQKvOHdi-20">
          <mxGeometry y="25" width="46" height="40" as="geometry" />
        </mxCell>
        <mxCell id="r11OAuE-Dpr2aQKvOHdi-22" value="ptr" style="text;html=1;align=center;verticalAlign=middle;resizable=0;points=[];autosize=1;strokeColor=none;fillColor=none;" vertex="1" parent="r11OAuE-Dpr2aQKvOHdi-20">
          <mxGeometry x="2" width="40" height="30" as="geometry" />
        </mxCell>
        <mxCell id="r11OAuE-Dpr2aQKvOHdi-23" value="int*" style="text;html=1;align=center;verticalAlign=middle;resizable=0;points=[];autosize=1;strokeColor=none;fillColor=none;" vertex="1" parent="r11OAuE-Dpr2aQKvOHdi-20">
          <mxGeometry x="17" y="59" width="40" height="30" as="geometry" />
        </mxCell>
        <mxCell id="r11OAuE-Dpr2aQKvOHdi-24" value="" style="endArrow=classic;html=1;rounded=0;entryX=0;entryY=0;entryDx=0;entryDy=0;" edge="1" parent="1" target="r11OAuE-Dpr2aQKvOHdi-28">
          <mxGeometry width="50" height="50" relative="1" as="geometry">
            <mxPoint x="69" y="584" as="sourcePoint" />
            <mxPoint x="113" y="554" as="targetPoint" />
          </mxGeometry>
        </mxCell>
        <mxCell id="r11OAuE-Dpr2aQKvOHdi-25" value="" style="group" vertex="1" connectable="0" parent="1">
          <mxGeometry x="140" y="540" width="59" height="88" as="geometry" />
        </mxCell>
        <mxCell id="r11OAuE-Dpr2aQKvOHdi-26" value="a" style="text;html=1;align=center;verticalAlign=middle;resizable=0;points=[];autosize=1;strokeColor=none;fillColor=none;" vertex="1" parent="r11OAuE-Dpr2aQKvOHdi-25">
          <mxGeometry x="8" width="30" height="30" as="geometry" />
        </mxCell>
        <mxCell id="r11OAuE-Dpr2aQKvOHdi-27" value="" style="group" vertex="1" connectable="0" parent="r11OAuE-Dpr2aQKvOHdi-25">
          <mxGeometry y="24" width="59" height="64" as="geometry" />
        </mxCell>
        <mxCell id="r11OAuE-Dpr2aQKvOHdi-28" value="42" style="rounded=0;whiteSpace=wrap;html=1;fillColor=#1ba1e2;fontColor=#ffffff;strokeColor=#006EAF;" vertex="1" parent="r11OAuE-Dpr2aQKvOHdi-27">
          <mxGeometry width="46" height="40" as="geometry" />
        </mxCell>
        <mxCell id="r11OAuE-Dpr2aQKvOHdi-29" value="int" style="text;html=1;align=center;verticalAlign=middle;resizable=0;points=[];autosize=1;strokeColor=none;fillColor=none;" vertex="1" parent="r11OAuE-Dpr2aQKvOHdi-27">
          <mxGeometry x="19" y="34" width="40" height="30" as="geometry" />
        </mxCell>
        <mxCell id="r11OAuE-Dpr2aQKvOHdi-30" value="main" style="text;html=1;align=left;verticalAlign=middle;whiteSpace=wrap;rounded=0;" vertex="1" parent="1">
          <mxGeometry x="22" y="510" width="60" height="30" as="geometry" />
        </mxCell>
        <mxCell id="r11OAuE-Dpr2aQKvOHdi-31" value="" style="rounded=0;whiteSpace=wrap;html=1;" vertex="1" parent="1">
          <mxGeometry x="23" y="657" width="300" height="90" as="geometry" />
        </mxCell>
        <mxCell id="r11OAuE-Dpr2aQKvOHdi-42" value="foo#1: parameters" style="text;html=1;align=left;verticalAlign=middle;whiteSpace=wrap;rounded=0;" vertex="1" parent="1">
          <mxGeometry x="22" y="628" width="301" height="30" as="geometry" />
        </mxCell>
        <mxCell id="r11OAuE-Dpr2aQKvOHdi-43" value="" style="rounded=0;whiteSpace=wrap;html=1;" vertex="1" parent="1">
          <mxGeometry x="23" y="775" width="300" height="90" as="geometry" />
        </mxCell>
        <mxCell id="r11OAuE-Dpr2aQKvOHdi-54" value="foo#1" style="text;html=1;align=left;verticalAlign=middle;whiteSpace=wrap;rounded=0;" vertex="1" parent="1">
          <mxGeometry x="22" y="746" width="301" height="30" as="geometry" />
        </mxCell>
        <mxCell id="r11OAuE-Dpr2aQKvOHdi-59" value="" style="group" vertex="1" connectable="0" parent="1">
          <mxGeometry x="45" y="776" width="57" height="89" as="geometry" />
        </mxCell>
        <mxCell id="r11OAuE-Dpr2aQKvOHdi-60" value="&lt;font style=&quot;font-size: 23px;&quot;&gt;●&lt;/font&gt;" style="rounded=0;whiteSpace=wrap;html=1;fillColor=#1ba1e2;fontColor=#ffffff;strokeColor=#006EAF;" vertex="1" parent="r11OAuE-Dpr2aQKvOHdi-59">
          <mxGeometry y="25" width="46" height="40" as="geometry" />
        </mxCell>
        <mxCell id="r11OAuE-Dpr2aQKvOHdi-61" value="b" style="text;html=1;align=center;verticalAlign=middle;resizable=0;points=[];autosize=1;strokeColor=none;fillColor=none;" vertex="1" parent="r11OAuE-Dpr2aQKvOHdi-59">
          <mxGeometry x="7" width="30" height="30" as="geometry" />
        </mxCell>
        <mxCell id="r11OAuE-Dpr2aQKvOHdi-62" value="int*" style="text;html=1;align=center;verticalAlign=middle;resizable=0;points=[];autosize=1;strokeColor=none;fillColor=none;" vertex="1" parent="r11OAuE-Dpr2aQKvOHdi-59">
          <mxGeometry x="17" y="59" width="40" height="30" as="geometry" />
        </mxCell>
        <mxCell id="r11OAuE-Dpr2aQKvOHdi-63" value="" style="group" vertex="1" connectable="0" parent="1">
          <mxGeometry x="142" y="776" width="64" height="93" as="geometry" />
        </mxCell>
        <mxCell id="r11OAuE-Dpr2aQKvOHdi-64" value="" style="group" vertex="1" connectable="0" parent="r11OAuE-Dpr2aQKvOHdi-63">
          <mxGeometry y="24" width="64" height="69" as="geometry" />
        </mxCell>
        <mxCell id="r11OAuE-Dpr2aQKvOHdi-65" value="42" style="rounded=0;whiteSpace=wrap;html=1;fillColor=#a20025;fontColor=#ffffff;strokeColor=#6F0000;" vertex="1" parent="r11OAuE-Dpr2aQKvOHdi-64">
          <mxGeometry width="46" height="40" as="geometry" />
        </mxCell>
        <mxCell id="r11OAuE-Dpr2aQKvOHdi-66" value="" style="endArrow=classic;html=1;rounded=0;entryX=0;entryY=0;entryDx=0;entryDy=0;" edge="1" parent="1" target="r11OAuE-Dpr2aQKvOHdi-65">
          <mxGeometry width="50" height="50" relative="1" as="geometry">
            <mxPoint x="70" y="821" as="sourcePoint" />
            <mxPoint x="142" y="806" as="targetPoint" />
          </mxGeometry>
        </mxCell>
        <mxCell id="r11OAuE-Dpr2aQKvOHdi-67" value="" style="group" vertex="1" connectable="0" parent="1">
          <mxGeometry x="43" y="421" width="62" height="89" as="geometry" />
        </mxCell>
        <mxCell id="r11OAuE-Dpr2aQKvOHdi-68" value="&lt;font style=&quot;font-size: 23px;&quot;&gt;●&lt;/font&gt;" style="rounded=0;whiteSpace=wrap;html=1;fillColor=#60a917;fontColor=#ffffff;strokeColor=#2D7600;" vertex="1" parent="r11OAuE-Dpr2aQKvOHdi-67">
          <mxGeometry y="25" width="46" height="40" as="geometry" />
        </mxCell>
        <mxCell id="r11OAuE-Dpr2aQKvOHdi-69" value="h" style="text;html=1;align=center;verticalAlign=middle;resizable=0;points=[];autosize=1;strokeColor=none;fillColor=none;" vertex="1" parent="r11OAuE-Dpr2aQKvOHdi-67">
          <mxGeometry x="7" width="30" height="30" as="geometry" />
        </mxCell>
        <mxCell id="r11OAuE-Dpr2aQKvOHdi-70" value="char*" style="text;html=1;align=center;verticalAlign=middle;resizable=0;points=[];autosize=1;strokeColor=none;fillColor=none;" vertex="1" parent="r11OAuE-Dpr2aQKvOHdi-67">
          <mxGeometry x="12" y="59" width="50" height="30" as="geometry" />
        </mxCell>
        <mxCell id="r11OAuE-Dpr2aQKvOHdi-74" value="&#39;A&#39;" style="rounded=0;whiteSpace=wrap;html=1;fillColor=#60a917;fontColor=#ffffff;strokeColor=#2D7600;" vertex="1" parent="1">
          <mxGeometry x="133" y="445.5" width="46" height="40" as="geometry" />
        </mxCell>
        <mxCell id="r11OAuE-Dpr2aQKvOHdi-75" value="&#39;B&#39;" style="rounded=0;whiteSpace=wrap;html=1;fillColor=#60a917;fontColor=#ffffff;strokeColor=#2D7600;" vertex="1" parent="1">
          <mxGeometry x="179" y="445.5" width="46" height="40" as="geometry" />
        </mxCell>
        <mxCell id="r11OAuE-Dpr2aQKvOHdi-76" value="&#39;\0&#39;" style="rounded=0;whiteSpace=wrap;html=1;fillColor=#60a917;fontColor=#ffffff;strokeColor=#2D7600;" vertex="1" parent="1">
          <mxGeometry x="225" y="445.5" width="46" height="40" as="geometry" />
        </mxCell>
        <mxCell id="r11OAuE-Dpr2aQKvOHdi-78" value="h[0]" style="text;html=1;align=center;verticalAlign=middle;resizable=0;points=[];autosize=1;strokeColor=none;fillColor=none;" vertex="1" parent="1">
          <mxGeometry x="136" y="418.5" width="40" height="30" as="geometry" />
        </mxCell>
        <mxCell id="r11OAuE-Dpr2aQKvOHdi-79" value="h[1]" style="text;html=1;align=center;verticalAlign=middle;resizable=0;points=[];autosize=1;strokeColor=none;fillColor=none;" vertex="1" parent="1">
          <mxGeometry x="182" y="418.5" width="40" height="30" as="geometry" />
        </mxCell>
        <mxCell id="r11OAuE-Dpr2aQKvOHdi-80" value="h[2]" style="text;html=1;align=center;verticalAlign=middle;resizable=0;points=[];autosize=1;strokeColor=none;fillColor=none;" vertex="1" parent="1">
          <mxGeometry x="228" y="418.5" width="40" height="30" as="geometry" />
        </mxCell>
        <mxCell id="r11OAuE-Dpr2aQKvOHdi-82" value="char[3]" style="text;html=1;align=center;verticalAlign=middle;resizable=0;points=[];autosize=1;strokeColor=none;fillColor=none;" vertex="1" parent="1">
          <mxGeometry x="221" y="479.5" width="60" height="30" as="geometry" />
        </mxCell>
        <mxCell id="r11OAuE-Dpr2aQKvOHdi-86" value="" style="endArrow=classic;html=1;rounded=0;entryX=0;entryY=0;entryDx=0;entryDy=0;" edge="1" parent="1" target="r11OAuE-Dpr2aQKvOHdi-74">
          <mxGeometry width="50" height="50" relative="1" as="geometry">
            <mxPoint x="68" y="467.5" as="sourcePoint" />
            <mxPoint x="135" y="445.5" as="targetPoint" />
          </mxGeometry>
        </mxCell>
        <mxCell id="r11OAuE-Dpr2aQKvOHdi-87" value="" style="group" vertex="1" connectable="0" parent="1">
          <mxGeometry x="43" y="657" width="59" height="88" as="geometry" />
        </mxCell>
        <mxCell id="r11OAuE-Dpr2aQKvOHdi-88" value="param" style="text;html=1;align=center;verticalAlign=middle;resizable=0;points=[];autosize=1;strokeColor=none;fillColor=none;" vertex="1" parent="r11OAuE-Dpr2aQKvOHdi-87">
          <mxGeometry x="-7" width="60" height="30" as="geometry" />
        </mxCell>
        <mxCell id="r11OAuE-Dpr2aQKvOHdi-89" value="" style="group" vertex="1" connectable="0" parent="r11OAuE-Dpr2aQKvOHdi-87">
          <mxGeometry y="24" width="59" height="64" as="geometry" />
        </mxCell>
        <mxCell id="r11OAuE-Dpr2aQKvOHdi-90" value="42" style="rounded=0;whiteSpace=wrap;html=1;fillColor=#1ba1e2;fontColor=#ffffff;strokeColor=#006EAF;" vertex="1" parent="r11OAuE-Dpr2aQKvOHdi-89">
          <mxGeometry width="46" height="40" as="geometry" />
        </mxCell>
        <mxCell id="r11OAuE-Dpr2aQKvOHdi-91" value="int" style="text;html=1;align=center;verticalAlign=middle;resizable=0;points=[];autosize=1;strokeColor=none;fillColor=none;" vertex="1" parent="r11OAuE-Dpr2aQKvOHdi-89">
          <mxGeometry x="19" y="34" width="40" height="30" as="geometry" />
        </mxCell>
        <mxCell id="r11OAuE-Dpr2aQKvOHdi-135" value="" style="rounded=0;whiteSpace=wrap;html=1;" vertex="1" parent="1">
          <mxGeometry x="433" y="419" width="380" height="701" as="geometry" />
        </mxCell>
        <mxCell id="r11OAuE-Dpr2aQKvOHdi-136" value="global" style="text;html=1;align=left;verticalAlign=middle;whiteSpace=wrap;rounded=0;" vertex="1" parent="1">
          <mxGeometry x="433" y="388.5" width="60" height="30" as="geometry" />
        </mxCell>
        <mxCell id="r11OAuE-Dpr2aQKvOHdi-137" value="" style="rounded=0;whiteSpace=wrap;html=1;" vertex="1" parent="1">
          <mxGeometry x="444" y="539" width="359" height="571" as="geometry" />
        </mxCell>
        <mxCell id="r11OAuE-Dpr2aQKvOHdi-138" value="" style="group" vertex="1" connectable="0" parent="1">
          <mxGeometry x="464" y="539" width="290" height="111" as="geometry" />
        </mxCell>
        <mxCell id="r11OAuE-Dpr2aQKvOHdi-139" value="&lt;font style=&quot;font-size: 23px;&quot;&gt;●&lt;/font&gt;" style="rounded=0;whiteSpace=wrap;html=1;fillColor=#1ba1e2;fontColor=#ffffff;strokeColor=#006EAF;" vertex="1" parent="r11OAuE-Dpr2aQKvOHdi-138">
          <mxGeometry y="25" width="46" height="40" as="geometry" />
        </mxCell>
        <mxCell id="r11OAuE-Dpr2aQKvOHdi-140" value="ptr" style="text;html=1;align=center;verticalAlign=middle;resizable=0;points=[];autosize=1;strokeColor=none;fillColor=none;" vertex="1" parent="r11OAuE-Dpr2aQKvOHdi-138">
          <mxGeometry x="2" width="40" height="30" as="geometry" />
        </mxCell>
        <mxCell id="r11OAuE-Dpr2aQKvOHdi-141" value="int*" style="text;html=1;align=center;verticalAlign=middle;resizable=0;points=[];autosize=1;strokeColor=none;fillColor=none;" vertex="1" parent="r11OAuE-Dpr2aQKvOHdi-138">
          <mxGeometry x="17" y="59" width="40" height="30" as="geometry" />
        </mxCell>
        <mxCell id="r11OAuE-Dpr2aQKvOHdi-142" value="" style="endArrow=classic;html=1;rounded=0;entryX=0;entryY=0;entryDx=0;entryDy=0;" edge="1" parent="1" target="r11OAuE-Dpr2aQKvOHdi-146">
          <mxGeometry width="50" height="50" relative="1" as="geometry">
            <mxPoint x="490" y="584" as="sourcePoint" />
            <mxPoint x="534" y="554" as="targetPoint" />
          </mxGeometry>
        </mxCell>
        <mxCell id="r11OAuE-Dpr2aQKvOHdi-143" value="" style="group" vertex="1" connectable="0" parent="1">
          <mxGeometry x="561" y="540" width="59" height="88" as="geometry" />
        </mxCell>
        <mxCell id="r11OAuE-Dpr2aQKvOHdi-144" value="a" style="text;html=1;align=center;verticalAlign=middle;resizable=0;points=[];autosize=1;strokeColor=none;fillColor=none;" vertex="1" parent="r11OAuE-Dpr2aQKvOHdi-143">
          <mxGeometry x="8" width="30" height="30" as="geometry" />
        </mxCell>
        <mxCell id="r11OAuE-Dpr2aQKvOHdi-145" value="" style="group" vertex="1" connectable="0" parent="r11OAuE-Dpr2aQKvOHdi-143">
          <mxGeometry y="24" width="59" height="64" as="geometry" />
        </mxCell>
        <mxCell id="r11OAuE-Dpr2aQKvOHdi-146" value="42" style="rounded=0;whiteSpace=wrap;html=1;fillColor=#1ba1e2;fontColor=#ffffff;strokeColor=#006EAF;" vertex="1" parent="r11OAuE-Dpr2aQKvOHdi-145">
          <mxGeometry width="46" height="40" as="geometry" />
        </mxCell>
        <mxCell id="r11OAuE-Dpr2aQKvOHdi-147" value="int" style="text;html=1;align=center;verticalAlign=middle;resizable=0;points=[];autosize=1;strokeColor=none;fillColor=none;" vertex="1" parent="r11OAuE-Dpr2aQKvOHdi-145">
          <mxGeometry x="19" y="34" width="40" height="30" as="geometry" />
        </mxCell>
        <mxCell id="r11OAuE-Dpr2aQKvOHdi-148" value="main" style="text;html=1;align=left;verticalAlign=middle;whiteSpace=wrap;rounded=0;" vertex="1" parent="1">
          <mxGeometry x="443" y="510" width="60" height="30" as="geometry" />
        </mxCell>
        <mxCell id="r11OAuE-Dpr2aQKvOHdi-149" value="" style="group" vertex="1" connectable="0" parent="1">
          <mxGeometry x="444" y="431" width="62" height="89" as="geometry" />
        </mxCell>
        <mxCell id="r11OAuE-Dpr2aQKvOHdi-150" value="&lt;font style=&quot;font-size: 23px;&quot;&gt;●&lt;/font&gt;" style="rounded=0;whiteSpace=wrap;html=1;fillColor=#60a917;fontColor=#ffffff;strokeColor=#2D7600;" vertex="1" parent="r11OAuE-Dpr2aQKvOHdi-149">
          <mxGeometry x="9" y="16.5" width="46" height="40" as="geometry" />
        </mxCell>
        <mxCell id="r11OAuE-Dpr2aQKvOHdi-151" value="h" style="text;html=1;align=center;verticalAlign=middle;resizable=0;points=[];autosize=1;strokeColor=none;fillColor=none;" vertex="1" parent="r11OAuE-Dpr2aQKvOHdi-149">
          <mxGeometry x="16" y="-8.5" width="30" height="30" as="geometry" />
        </mxCell>
        <mxCell id="r11OAuE-Dpr2aQKvOHdi-152" value="char*" style="text;html=1;align=center;verticalAlign=middle;resizable=0;points=[];autosize=1;strokeColor=none;fillColor=none;" vertex="1" parent="r11OAuE-Dpr2aQKvOHdi-149">
          <mxGeometry x="12" y="59" width="50" height="30" as="geometry" />
        </mxCell>
        <mxCell id="r11OAuE-Dpr2aQKvOHdi-153" value="&#39;A&#39;" style="rounded=0;whiteSpace=wrap;html=1;fillColor=#60a917;fontColor=#ffffff;strokeColor=#2D7600;" vertex="1" parent="1">
          <mxGeometry x="543" y="447" width="46" height="40" as="geometry" />
        </mxCell>
        <mxCell id="r11OAuE-Dpr2aQKvOHdi-154" value="&#39;B&#39;" style="rounded=0;whiteSpace=wrap;html=1;fillColor=#60a917;fontColor=#ffffff;strokeColor=#2D7600;" vertex="1" parent="1">
          <mxGeometry x="589" y="447" width="46" height="40" as="geometry" />
        </mxCell>
        <mxCell id="r11OAuE-Dpr2aQKvOHdi-155" value="&#39;\0&#39;" style="rounded=0;whiteSpace=wrap;html=1;fillColor=#60a917;fontColor=#ffffff;strokeColor=#2D7600;" vertex="1" parent="1">
          <mxGeometry x="635" y="447" width="46" height="40" as="geometry" />
        </mxCell>
        <mxCell id="r11OAuE-Dpr2aQKvOHdi-156" value="h[0]" style="text;html=1;align=center;verticalAlign=middle;resizable=0;points=[];autosize=1;strokeColor=none;fillColor=none;" vertex="1" parent="1">
          <mxGeometry x="546" y="420" width="40" height="30" as="geometry" />
        </mxCell>
        <mxCell id="r11OAuE-Dpr2aQKvOHdi-157" value="h[1]" style="text;html=1;align=center;verticalAlign=middle;resizable=0;points=[];autosize=1;strokeColor=none;fillColor=none;" vertex="1" parent="1">
          <mxGeometry x="592" y="420" width="40" height="30" as="geometry" />
        </mxCell>
        <mxCell id="r11OAuE-Dpr2aQKvOHdi-158" value="h[2]" style="text;html=1;align=center;verticalAlign=middle;resizable=0;points=[];autosize=1;strokeColor=none;fillColor=none;" vertex="1" parent="1">
          <mxGeometry x="638" y="420" width="40" height="30" as="geometry" />
        </mxCell>
        <mxCell id="r11OAuE-Dpr2aQKvOHdi-159" value="char[3]" style="text;html=1;align=center;verticalAlign=middle;resizable=0;points=[];autosize=1;strokeColor=none;fillColor=none;" vertex="1" parent="1">
          <mxGeometry x="622" y="489.5" width="60" height="30" as="geometry" />
        </mxCell>
        <mxCell id="r11OAuE-Dpr2aQKvOHdi-160" value="" style="endArrow=classic;html=1;rounded=0;entryX=0;entryY=0;entryDx=0;entryDy=0;" edge="1" parent="1" target="r11OAuE-Dpr2aQKvOHdi-153">
          <mxGeometry width="50" height="50" relative="1" as="geometry">
            <mxPoint x="478" y="469" as="sourcePoint" />
            <mxPoint x="545" y="447" as="targetPoint" />
          </mxGeometry>
        </mxCell>
        <mxCell id="r11OAuE-Dpr2aQKvOHdi-161" value="" style="rounded=0;whiteSpace=wrap;html=1;" vertex="1" parent="1">
          <mxGeometry x="453" y="640" width="340" height="216" as="geometry" />
        </mxCell>
        <mxCell id="r11OAuE-Dpr2aQKvOHdi-210" value="" style="rounded=0;whiteSpace=wrap;html=1;" vertex="1" parent="1">
          <mxGeometry x="464" y="760" width="319" height="85" as="geometry" />
        </mxCell>
        <mxCell id="r11OAuE-Dpr2aQKvOHdi-176" value="" style="group" vertex="1" connectable="0" parent="1">
          <mxGeometry x="483" y="760" width="57" height="89" as="geometry" />
        </mxCell>
        <mxCell id="r11OAuE-Dpr2aQKvOHdi-177" value="&lt;font style=&quot;font-size: 23px;&quot;&gt;●&lt;/font&gt;" style="rounded=0;whiteSpace=wrap;html=1;fillColor=#1ba1e2;fontColor=#ffffff;strokeColor=#006EAF;" vertex="1" parent="r11OAuE-Dpr2aQKvOHdi-176">
          <mxGeometry y="25" width="46" height="40" as="geometry" />
        </mxCell>
        <mxCell id="r11OAuE-Dpr2aQKvOHdi-178" value="b" style="text;html=1;align=center;verticalAlign=middle;resizable=0;points=[];autosize=1;strokeColor=none;fillColor=none;" vertex="1" parent="r11OAuE-Dpr2aQKvOHdi-176">
          <mxGeometry x="7" width="30" height="30" as="geometry" />
        </mxCell>
        <mxCell id="r11OAuE-Dpr2aQKvOHdi-179" value="int*" style="text;html=1;align=center;verticalAlign=middle;resizable=0;points=[];autosize=1;strokeColor=none;fillColor=none;" vertex="1" parent="r11OAuE-Dpr2aQKvOHdi-176">
          <mxGeometry x="17" y="59" width="40" height="30" as="geometry" />
        </mxCell>
        <mxCell id="r11OAuE-Dpr2aQKvOHdi-180" value="" style="group" vertex="1" connectable="0" parent="1">
          <mxGeometry x="580" y="760" width="64" height="93" as="geometry" />
        </mxCell>
        <mxCell id="r11OAuE-Dpr2aQKvOHdi-181" value="" style="group" vertex="1" connectable="0" parent="r11OAuE-Dpr2aQKvOHdi-180">
          <mxGeometry y="24" width="64" height="69" as="geometry" />
        </mxCell>
        <mxCell id="r11OAuE-Dpr2aQKvOHdi-182" value="42" style="rounded=0;whiteSpace=wrap;html=1;fillColor=#a20025;fontColor=#ffffff;strokeColor=#6F0000;" vertex="1" parent="r11OAuE-Dpr2aQKvOHdi-181">
          <mxGeometry width="46" height="40" as="geometry" />
        </mxCell>
        <mxCell id="r11OAuE-Dpr2aQKvOHdi-183" value="" style="endArrow=classic;html=1;rounded=0;entryX=0;entryY=0;entryDx=0;entryDy=0;" edge="1" parent="1" target="r11OAuE-Dpr2aQKvOHdi-182">
          <mxGeometry width="50" height="50" relative="1" as="geometry">
            <mxPoint x="508" y="805" as="sourcePoint" />
            <mxPoint x="580" y="790" as="targetPoint" />
          </mxGeometry>
        </mxCell>
        <mxCell id="r11OAuE-Dpr2aQKvOHdi-191" value="" style="endArrow=classic;html=1;rounded=0;entryX=0;entryY=0;entryDx=0;entryDy=0;exitX=0.413;exitY=0.5;exitDx=0;exitDy=0;exitPerimeter=0;" edge="1" parent="1" source="r11OAuE-Dpr2aQKvOHdi-185">
          <mxGeometry width="50" height="50" relative="1" as="geometry">
            <mxPoint x="506" y="595" as="sourcePoint" />
            <mxPoint x="578" y="664" as="targetPoint" />
          </mxGeometry>
        </mxCell>
        <mxCell id="r11OAuE-Dpr2aQKvOHdi-192" value="" style="rounded=0;whiteSpace=wrap;html=1;" vertex="1" parent="1">
          <mxGeometry x="20" y="894" width="300" height="90" as="geometry" />
        </mxCell>
        <mxCell id="r11OAuE-Dpr2aQKvOHdi-193" value="foo#2: parameters" style="text;html=1;align=left;verticalAlign=middle;whiteSpace=wrap;rounded=0;" vertex="1" parent="1">
          <mxGeometry x="19" y="865" width="301" height="30" as="geometry" />
        </mxCell>
        <mxCell id="r11OAuE-Dpr2aQKvOHdi-194" value="" style="rounded=0;whiteSpace=wrap;html=1;" vertex="1" parent="1">
          <mxGeometry x="20" y="1012" width="300" height="90" as="geometry" />
        </mxCell>
        <mxCell id="r11OAuE-Dpr2aQKvOHdi-195" value="foo#2" style="text;html=1;align=left;verticalAlign=middle;whiteSpace=wrap;rounded=0;" vertex="1" parent="1">
          <mxGeometry x="19" y="983" width="301" height="30" as="geometry" />
        </mxCell>
        <mxCell id="r11OAuE-Dpr2aQKvOHdi-196" value="" style="group" vertex="1" connectable="0" parent="1">
          <mxGeometry x="42" y="1013" width="57" height="89" as="geometry" />
        </mxCell>
        <mxCell id="r11OAuE-Dpr2aQKvOHdi-197" value="&lt;font style=&quot;font-size: 23px;&quot;&gt;●&lt;/font&gt;" style="rounded=0;whiteSpace=wrap;html=1;fillColor=#1ba1e2;fontColor=#ffffff;strokeColor=#006EAF;" vertex="1" parent="r11OAuE-Dpr2aQKvOHdi-196">
          <mxGeometry y="25" width="46" height="40" as="geometry" />
        </mxCell>
        <mxCell id="r11OAuE-Dpr2aQKvOHdi-198" value="b" style="text;html=1;align=center;verticalAlign=middle;resizable=0;points=[];autosize=1;strokeColor=none;fillColor=none;" vertex="1" parent="r11OAuE-Dpr2aQKvOHdi-196">
          <mxGeometry x="7" width="30" height="30" as="geometry" />
        </mxCell>
        <mxCell id="r11OAuE-Dpr2aQKvOHdi-199" value="int*" style="text;html=1;align=center;verticalAlign=middle;resizable=0;points=[];autosize=1;strokeColor=none;fillColor=none;" vertex="1" parent="r11OAuE-Dpr2aQKvOHdi-196">
          <mxGeometry x="17" y="59" width="40" height="30" as="geometry" />
        </mxCell>
        <mxCell id="r11OAuE-Dpr2aQKvOHdi-200" value="" style="group" vertex="1" connectable="0" parent="1">
          <mxGeometry x="139" y="1013" width="64" height="93" as="geometry" />
        </mxCell>
        <mxCell id="r11OAuE-Dpr2aQKvOHdi-201" value="" style="group" vertex="1" connectable="0" parent="r11OAuE-Dpr2aQKvOHdi-200">
          <mxGeometry y="24" width="64" height="69" as="geometry" />
        </mxCell>
        <mxCell id="r11OAuE-Dpr2aQKvOHdi-202" value="42" style="rounded=0;whiteSpace=wrap;html=1;fillColor=#a20025;fontColor=#ffffff;strokeColor=#6F0000;" vertex="1" parent="r11OAuE-Dpr2aQKvOHdi-201">
          <mxGeometry width="46" height="40" as="geometry" />
        </mxCell>
        <mxCell id="r11OAuE-Dpr2aQKvOHdi-203" value="" style="endArrow=classic;html=1;rounded=0;entryX=0;entryY=0;entryDx=0;entryDy=0;" edge="1" parent="1" target="r11OAuE-Dpr2aQKvOHdi-202">
          <mxGeometry width="50" height="50" relative="1" as="geometry">
            <mxPoint x="67" y="1058" as="sourcePoint" />
            <mxPoint x="139" y="1043" as="targetPoint" />
          </mxGeometry>
        </mxCell>
        <mxCell id="r11OAuE-Dpr2aQKvOHdi-204" value="" style="group" vertex="1" connectable="0" parent="1">
          <mxGeometry x="40" y="894" width="59" height="88" as="geometry" />
        </mxCell>
        <mxCell id="r11OAuE-Dpr2aQKvOHdi-205" value="param" style="text;html=1;align=center;verticalAlign=middle;resizable=0;points=[];autosize=1;strokeColor=none;fillColor=none;" vertex="1" parent="r11OAuE-Dpr2aQKvOHdi-204">
          <mxGeometry x="-7" width="60" height="30" as="geometry" />
        </mxCell>
        <mxCell id="r11OAuE-Dpr2aQKvOHdi-206" value="" style="group" vertex="1" connectable="0" parent="r11OAuE-Dpr2aQKvOHdi-204">
          <mxGeometry y="24" width="59" height="64" as="geometry" />
        </mxCell>
        <mxCell id="r11OAuE-Dpr2aQKvOHdi-207" value="21" style="rounded=0;whiteSpace=wrap;html=1;fillColor=#1ba1e2;fontColor=#ffffff;strokeColor=#006EAF;" vertex="1" parent="r11OAuE-Dpr2aQKvOHdi-206">
          <mxGeometry width="46" height="40" as="geometry" />
        </mxCell>
        <mxCell id="r11OAuE-Dpr2aQKvOHdi-208" value="int" style="text;html=1;align=center;verticalAlign=middle;resizable=0;points=[];autosize=1;strokeColor=none;fillColor=none;" vertex="1" parent="r11OAuE-Dpr2aQKvOHdi-206">
          <mxGeometry x="19" y="34" width="40" height="30" as="geometry" />
        </mxCell>
        <mxCell id="r11OAuE-Dpr2aQKvOHdi-211" value="foo#1" style="text;html=1;align=left;verticalAlign=middle;whiteSpace=wrap;rounded=0;" vertex="1" parent="1">
          <mxGeometry x="462.5" y="730" width="301" height="30" as="geometry" />
        </mxCell>
        <mxCell id="r11OAuE-Dpr2aQKvOHdi-212" value="foo#1: parameters" style="text;html=1;align=left;verticalAlign=middle;whiteSpace=wrap;rounded=0;" vertex="1" parent="1">
          <mxGeometry x="453" y="620" width="301" height="20" as="geometry" />
        </mxCell>
        <mxCell id="r11OAuE-Dpr2aQKvOHdi-237" value="" style="group" vertex="1" connectable="0" parent="1">
          <mxGeometry x="463" y="640" width="59" height="88" as="geometry" />
        </mxCell>
        <mxCell id="r11OAuE-Dpr2aQKvOHdi-238" value="param" style="text;html=1;align=center;verticalAlign=middle;resizable=0;points=[];autosize=1;strokeColor=none;fillColor=none;" vertex="1" parent="r11OAuE-Dpr2aQKvOHdi-237">
          <mxGeometry x="-7" width="60" height="30" as="geometry" />
        </mxCell>
        <mxCell id="r11OAuE-Dpr2aQKvOHdi-239" value="" style="group" vertex="1" connectable="0" parent="r11OAuE-Dpr2aQKvOHdi-237">
          <mxGeometry y="24" width="59" height="64" as="geometry" />
        </mxCell>
        <mxCell id="r11OAuE-Dpr2aQKvOHdi-240" value="42" style="rounded=0;whiteSpace=wrap;html=1;fillColor=#1ba1e2;fontColor=#ffffff;strokeColor=#006EAF;" vertex="1" parent="r11OAuE-Dpr2aQKvOHdi-239">
          <mxGeometry width="46" height="40" as="geometry" />
        </mxCell>
        <mxCell id="r11OAuE-Dpr2aQKvOHdi-241" value="int" style="text;html=1;align=center;verticalAlign=middle;resizable=0;points=[];autosize=1;strokeColor=none;fillColor=none;" vertex="1" parent="r11OAuE-Dpr2aQKvOHdi-239">
          <mxGeometry x="19" y="34" width="40" height="30" as="geometry" />
        </mxCell>
        <mxCell id="r11OAuE-Dpr2aQKvOHdi-242" value="" style="rounded=0;whiteSpace=wrap;html=1;" vertex="1" parent="1">
          <mxGeometry x="453" y="885" width="340" height="216" as="geometry" />
        </mxCell>
        <mxCell id="r11OAuE-Dpr2aQKvOHdi-243" value="" style="rounded=0;whiteSpace=wrap;html=1;" vertex="1" parent="1">
          <mxGeometry x="464" y="1005" width="319" height="85" as="geometry" />
        </mxCell>
        <mxCell id="r11OAuE-Dpr2aQKvOHdi-244" value="" style="group" vertex="1" connectable="0" parent="1">
          <mxGeometry x="483" y="1005" width="57" height="89" as="geometry" />
        </mxCell>
        <mxCell id="r11OAuE-Dpr2aQKvOHdi-245" value="&lt;font style=&quot;font-size: 23px;&quot;&gt;●&lt;/font&gt;" style="rounded=0;whiteSpace=wrap;html=1;fillColor=#1ba1e2;fontColor=#ffffff;strokeColor=#006EAF;" vertex="1" parent="r11OAuE-Dpr2aQKvOHdi-244">
          <mxGeometry y="25" width="46" height="40" as="geometry" />
        </mxCell>
        <mxCell id="r11OAuE-Dpr2aQKvOHdi-246" value="b" style="text;html=1;align=center;verticalAlign=middle;resizable=0;points=[];autosize=1;strokeColor=none;fillColor=none;" vertex="1" parent="r11OAuE-Dpr2aQKvOHdi-244">
          <mxGeometry x="7" width="30" height="30" as="geometry" />
        </mxCell>
        <mxCell id="r11OAuE-Dpr2aQKvOHdi-247" value="int*" style="text;html=1;align=center;verticalAlign=middle;resizable=0;points=[];autosize=1;strokeColor=none;fillColor=none;" vertex="1" parent="r11OAuE-Dpr2aQKvOHdi-244">
          <mxGeometry x="17" y="59" width="40" height="30" as="geometry" />
        </mxCell>
        <mxCell id="r11OAuE-Dpr2aQKvOHdi-248" value="" style="group" vertex="1" connectable="0" parent="1">
          <mxGeometry x="580" y="1005" width="64" height="93" as="geometry" />
        </mxCell>
        <mxCell id="r11OAuE-Dpr2aQKvOHdi-249" value="" style="group" vertex="1" connectable="0" parent="r11OAuE-Dpr2aQKvOHdi-248">
          <mxGeometry y="24" width="64" height="69" as="geometry" />
        </mxCell>
        <mxCell id="r11OAuE-Dpr2aQKvOHdi-250" value="42" style="rounded=0;whiteSpace=wrap;html=1;fillColor=#a20025;fontColor=#ffffff;strokeColor=#6F0000;" vertex="1" parent="r11OAuE-Dpr2aQKvOHdi-249">
          <mxGeometry width="46" height="40" as="geometry" />
        </mxCell>
        <mxCell id="r11OAuE-Dpr2aQKvOHdi-251" value="" style="endArrow=classic;html=1;rounded=0;entryX=0;entryY=0;entryDx=0;entryDy=0;" edge="1" parent="1" target="r11OAuE-Dpr2aQKvOHdi-250">
          <mxGeometry width="50" height="50" relative="1" as="geometry">
            <mxPoint x="508" y="1050" as="sourcePoint" />
            <mxPoint x="580" y="1035" as="targetPoint" />
          </mxGeometry>
        </mxCell>
        <mxCell id="r11OAuE-Dpr2aQKvOHdi-252" value="foo#2" style="text;html=1;align=left;verticalAlign=middle;whiteSpace=wrap;rounded=0;" vertex="1" parent="1">
          <mxGeometry x="462.5" y="975" width="301" height="30" as="geometry" />
        </mxCell>
        <mxCell id="r11OAuE-Dpr2aQKvOHdi-253" value="foo#2: parameters" style="text;html=1;align=left;verticalAlign=middle;whiteSpace=wrap;rounded=0;" vertex="1" parent="1">
          <mxGeometry x="453" y="865" width="301" height="20" as="geometry" />
        </mxCell>
        <mxCell id="r11OAuE-Dpr2aQKvOHdi-254" value="" style="group" vertex="1" connectable="0" parent="1">
          <mxGeometry x="463" y="885" width="59" height="88" as="geometry" />
        </mxCell>
        <mxCell id="r11OAuE-Dpr2aQKvOHdi-255" value="param" style="text;html=1;align=center;verticalAlign=middle;resizable=0;points=[];autosize=1;strokeColor=none;fillColor=none;" vertex="1" parent="r11OAuE-Dpr2aQKvOHdi-254">
          <mxGeometry x="-7" width="60" height="30" as="geometry" />
        </mxCell>
        <mxCell id="r11OAuE-Dpr2aQKvOHdi-256" value="" style="group" vertex="1" connectable="0" parent="r11OAuE-Dpr2aQKvOHdi-254">
          <mxGeometry y="24" width="59" height="64" as="geometry" />
        </mxCell>
        <mxCell id="r11OAuE-Dpr2aQKvOHdi-257" value="21" style="rounded=0;whiteSpace=wrap;html=1;fillColor=#1ba1e2;fontColor=#ffffff;strokeColor=#006EAF;" vertex="1" parent="r11OAuE-Dpr2aQKvOHdi-256">
          <mxGeometry width="46" height="40" as="geometry" />
        </mxCell>
        <mxCell id="r11OAuE-Dpr2aQKvOHdi-258" value="int" style="text;html=1;align=center;verticalAlign=middle;resizable=0;points=[];autosize=1;strokeColor=none;fillColor=none;" vertex="1" parent="r11OAuE-Dpr2aQKvOHdi-256">
          <mxGeometry x="19" y="34" width="40" height="30" as="geometry" />
        </mxCell>
        <mxCell id="r11OAuE-Dpr2aQKvOHdi-260" value="" style="rounded=0;whiteSpace=wrap;html=1;" vertex="1" parent="1">
          <mxGeometry x="27" y="1199" width="300" height="90" as="geometry" />
        </mxCell>
        <mxCell id="r11OAuE-Dpr2aQKvOHdi-261" value="global" style="text;html=1;align=left;verticalAlign=middle;whiteSpace=wrap;rounded=0;" vertex="1" parent="1">
          <mxGeometry x="26" y="1170" width="60" height="30" as="geometry" />
        </mxCell>
        <mxCell id="r11OAuE-Dpr2aQKvOHdi-381" style="edgeStyle=orthogonalEdgeStyle;rounded=0;orthogonalLoop=1;jettySize=auto;html=1;" edge="1" parent="1" source="r11OAuE-Dpr2aQKvOHdi-262" target="r11OAuE-Dpr2aQKvOHdi-260">
          <mxGeometry relative="1" as="geometry" />
        </mxCell>
        <mxCell id="r11OAuE-Dpr2aQKvOHdi-262" value="" style="rounded=0;whiteSpace=wrap;html=1;" vertex="1" parent="1">
          <mxGeometry x="27" y="1318" width="300" height="90" as="geometry" />
        </mxCell>
        <mxCell id="r11OAuE-Dpr2aQKvOHdi-263" value="" style="group" vertex="1" connectable="0" parent="1">
          <mxGeometry x="47" y="1318" width="57" height="89" as="geometry" />
        </mxCell>
        <mxCell id="r11OAuE-Dpr2aQKvOHdi-264" value="&lt;font style=&quot;font-size: 23px;&quot;&gt;●&lt;/font&gt;" style="rounded=0;whiteSpace=wrap;html=1;fillColor=#1ba1e2;fontColor=#ffffff;strokeColor=#006EAF;" vertex="1" parent="r11OAuE-Dpr2aQKvOHdi-263">
          <mxGeometry y="25" width="46" height="40" as="geometry" />
        </mxCell>
        <mxCell id="r11OAuE-Dpr2aQKvOHdi-265" value="ptr" style="text;html=1;align=center;verticalAlign=middle;resizable=0;points=[];autosize=1;strokeColor=none;fillColor=none;" vertex="1" parent="r11OAuE-Dpr2aQKvOHdi-263">
          <mxGeometry x="2" width="40" height="30" as="geometry" />
        </mxCell>
        <mxCell id="r11OAuE-Dpr2aQKvOHdi-266" value="int*" style="text;html=1;align=center;verticalAlign=middle;resizable=0;points=[];autosize=1;strokeColor=none;fillColor=none;" vertex="1" parent="r11OAuE-Dpr2aQKvOHdi-263">
          <mxGeometry x="17" y="59" width="40" height="30" as="geometry" />
        </mxCell>
        <mxCell id="r11OAuE-Dpr2aQKvOHdi-267" value="" style="endArrow=classic;html=1;rounded=0;entryX=0;entryY=0;entryDx=0;entryDy=0;" edge="1" parent="1" target="r11OAuE-Dpr2aQKvOHdi-271">
          <mxGeometry width="50" height="50" relative="1" as="geometry">
            <mxPoint x="73" y="1363" as="sourcePoint" />
            <mxPoint x="117" y="1333" as="targetPoint" />
          </mxGeometry>
        </mxCell>
        <mxCell id="r11OAuE-Dpr2aQKvOHdi-268" value="" style="group" vertex="1" connectable="0" parent="1">
          <mxGeometry x="144" y="1319" width="173.5" height="88" as="geometry" />
        </mxCell>
        <mxCell id="r11OAuE-Dpr2aQKvOHdi-269" value="a" style="text;html=1;align=center;verticalAlign=middle;resizable=0;points=[];autosize=1;strokeColor=none;fillColor=none;" vertex="1" parent="r11OAuE-Dpr2aQKvOHdi-268">
          <mxGeometry x="8" width="30" height="30" as="geometry" />
        </mxCell>
        <mxCell id="r11OAuE-Dpr2aQKvOHdi-270" value="" style="group" vertex="1" connectable="0" parent="r11OAuE-Dpr2aQKvOHdi-268">
          <mxGeometry y="24" width="173.5" height="64" as="geometry" />
        </mxCell>
        <mxCell id="r11OAuE-Dpr2aQKvOHdi-271" value="42" style="rounded=0;whiteSpace=wrap;html=1;fillColor=#1ba1e2;fontColor=#ffffff;strokeColor=#006EAF;" vertex="1" parent="r11OAuE-Dpr2aQKvOHdi-270">
          <mxGeometry width="46" height="40" as="geometry" />
        </mxCell>
        <mxCell id="r11OAuE-Dpr2aQKvOHdi-272" value="int" style="text;html=1;align=center;verticalAlign=middle;resizable=0;points=[];autosize=1;strokeColor=none;fillColor=none;" vertex="1" parent="r11OAuE-Dpr2aQKvOHdi-270">
          <mxGeometry x="19" y="34" width="40" height="30" as="geometry" />
        </mxCell>
        <mxCell id="r11OAuE-Dpr2aQKvOHdi-273" value="main" style="text;html=1;align=left;verticalAlign=middle;whiteSpace=wrap;rounded=0;" vertex="1" parent="1">
          <mxGeometry x="26" y="1289" width="60" height="30" as="geometry" />
        </mxCell>
        <mxCell id="r11OAuE-Dpr2aQKvOHdi-382" style="edgeStyle=orthogonalEdgeStyle;rounded=0;orthogonalLoop=1;jettySize=auto;html=1;" edge="1" parent="1" source="r11OAuE-Dpr2aQKvOHdi-274" target="r11OAuE-Dpr2aQKvOHdi-262">
          <mxGeometry relative="1" as="geometry" />
        </mxCell>
        <mxCell id="r11OAuE-Dpr2aQKvOHdi-274" value="" style="rounded=0;whiteSpace=wrap;html=1;" vertex="1" parent="1">
          <mxGeometry x="27" y="1436" width="300" height="90" as="geometry" />
        </mxCell>
        <mxCell id="r11OAuE-Dpr2aQKvOHdi-383" style="edgeStyle=orthogonalEdgeStyle;rounded=0;orthogonalLoop=1;jettySize=auto;html=1;" edge="1" parent="1" source="r11OAuE-Dpr2aQKvOHdi-276" target="r11OAuE-Dpr2aQKvOHdi-274">
          <mxGeometry relative="1" as="geometry" />
        </mxCell>
        <mxCell id="r11OAuE-Dpr2aQKvOHdi-276" value="" style="rounded=0;whiteSpace=wrap;html=1;" vertex="1" parent="1">
          <mxGeometry x="27" y="1554" width="300" height="90" as="geometry" />
        </mxCell>
        <mxCell id="r11OAuE-Dpr2aQKvOHdi-277" value="foo#1" style="text;html=1;align=left;verticalAlign=middle;whiteSpace=wrap;rounded=0;" vertex="1" parent="1">
          <mxGeometry x="26" y="1525" width="75" height="30" as="geometry" />
        </mxCell>
        <mxCell id="r11OAuE-Dpr2aQKvOHdi-278" value="" style="group" vertex="1" connectable="0" parent="1">
          <mxGeometry x="49" y="1555" width="57" height="89" as="geometry" />
        </mxCell>
        <mxCell id="r11OAuE-Dpr2aQKvOHdi-279" value="&lt;font style=&quot;font-size: 23px;&quot;&gt;●&lt;/font&gt;" style="rounded=0;whiteSpace=wrap;html=1;fillColor=#1ba1e2;fontColor=#ffffff;strokeColor=#006EAF;" vertex="1" parent="r11OAuE-Dpr2aQKvOHdi-278">
          <mxGeometry y="25" width="46" height="40" as="geometry" />
        </mxCell>
        <mxCell id="r11OAuE-Dpr2aQKvOHdi-280" value="b" style="text;html=1;align=center;verticalAlign=middle;resizable=0;points=[];autosize=1;strokeColor=none;fillColor=none;" vertex="1" parent="r11OAuE-Dpr2aQKvOHdi-278">
          <mxGeometry x="7" width="30" height="30" as="geometry" />
        </mxCell>
        <mxCell id="r11OAuE-Dpr2aQKvOHdi-281" value="int*" style="text;html=1;align=center;verticalAlign=middle;resizable=0;points=[];autosize=1;strokeColor=none;fillColor=none;" vertex="1" parent="r11OAuE-Dpr2aQKvOHdi-278">
          <mxGeometry x="17" y="59" width="40" height="30" as="geometry" />
        </mxCell>
        <mxCell id="r11OAuE-Dpr2aQKvOHdi-282" value="" style="group" vertex="1" connectable="0" parent="1">
          <mxGeometry x="146" y="1555" width="64" height="93" as="geometry" />
        </mxCell>
        <mxCell id="r11OAuE-Dpr2aQKvOHdi-283" value="" style="group" vertex="1" connectable="0" parent="r11OAuE-Dpr2aQKvOHdi-282">
          <mxGeometry y="24" width="64" height="69" as="geometry" />
        </mxCell>
        <mxCell id="r11OAuE-Dpr2aQKvOHdi-284" value="42" style="rounded=0;whiteSpace=wrap;html=1;fillColor=#a20025;fontColor=#ffffff;strokeColor=#6F0000;" vertex="1" parent="r11OAuE-Dpr2aQKvOHdi-283">
          <mxGeometry width="46" height="40" as="geometry" />
        </mxCell>
        <mxCell id="r11OAuE-Dpr2aQKvOHdi-285" value="" style="endArrow=classic;html=1;rounded=0;entryX=0;entryY=0;entryDx=0;entryDy=0;" edge="1" parent="1" target="r11OAuE-Dpr2aQKvOHdi-284">
          <mxGeometry width="50" height="50" relative="1" as="geometry">
            <mxPoint x="74" y="1600" as="sourcePoint" />
            <mxPoint x="146" y="1585" as="targetPoint" />
          </mxGeometry>
        </mxCell>
        <mxCell id="r11OAuE-Dpr2aQKvOHdi-286" value="" style="group" vertex="1" connectable="0" parent="1">
          <mxGeometry x="47" y="1200" width="62" height="89" as="geometry" />
        </mxCell>
        <mxCell id="r11OAuE-Dpr2aQKvOHdi-287" value="&lt;font style=&quot;font-size: 23px;&quot;&gt;●&lt;/font&gt;" style="rounded=0;whiteSpace=wrap;html=1;fillColor=#60a917;fontColor=#ffffff;strokeColor=#2D7600;" vertex="1" parent="r11OAuE-Dpr2aQKvOHdi-286">
          <mxGeometry y="25" width="46" height="40" as="geometry" />
        </mxCell>
        <mxCell id="r11OAuE-Dpr2aQKvOHdi-288" value="h" style="text;html=1;align=center;verticalAlign=middle;resizable=0;points=[];autosize=1;strokeColor=none;fillColor=none;" vertex="1" parent="r11OAuE-Dpr2aQKvOHdi-286">
          <mxGeometry x="7" width="30" height="30" as="geometry" />
        </mxCell>
        <mxCell id="r11OAuE-Dpr2aQKvOHdi-289" value="char*" style="text;html=1;align=center;verticalAlign=middle;resizable=0;points=[];autosize=1;strokeColor=none;fillColor=none;" vertex="1" parent="r11OAuE-Dpr2aQKvOHdi-286">
          <mxGeometry x="12" y="59" width="50" height="30" as="geometry" />
        </mxCell>
        <mxCell id="r11OAuE-Dpr2aQKvOHdi-290" value="&#39;A&#39;" style="rounded=0;whiteSpace=wrap;html=1;fillColor=#60a917;fontColor=#ffffff;strokeColor=#2D7600;" vertex="1" parent="1">
          <mxGeometry x="137" y="1224.5" width="46" height="40" as="geometry" />
        </mxCell>
        <mxCell id="r11OAuE-Dpr2aQKvOHdi-291" value="&#39;B&#39;" style="rounded=0;whiteSpace=wrap;html=1;fillColor=#60a917;fontColor=#ffffff;strokeColor=#2D7600;" vertex="1" parent="1">
          <mxGeometry x="183" y="1224.5" width="46" height="40" as="geometry" />
        </mxCell>
        <mxCell id="r11OAuE-Dpr2aQKvOHdi-292" value="&#39;\0&#39;" style="rounded=0;whiteSpace=wrap;html=1;fillColor=#60a917;fontColor=#ffffff;strokeColor=#2D7600;" vertex="1" parent="1">
          <mxGeometry x="229" y="1224.5" width="46" height="40" as="geometry" />
        </mxCell>
        <mxCell id="r11OAuE-Dpr2aQKvOHdi-293" value="h[0]" style="text;html=1;align=center;verticalAlign=middle;resizable=0;points=[];autosize=1;strokeColor=none;fillColor=none;" vertex="1" parent="1">
          <mxGeometry x="140" y="1197.5" width="40" height="30" as="geometry" />
        </mxCell>
        <mxCell id="r11OAuE-Dpr2aQKvOHdi-294" value="h[1]" style="text;html=1;align=center;verticalAlign=middle;resizable=0;points=[];autosize=1;strokeColor=none;fillColor=none;" vertex="1" parent="1">
          <mxGeometry x="186" y="1197.5" width="40" height="30" as="geometry" />
        </mxCell>
        <mxCell id="r11OAuE-Dpr2aQKvOHdi-295" value="h[2]" style="text;html=1;align=center;verticalAlign=middle;resizable=0;points=[];autosize=1;strokeColor=none;fillColor=none;" vertex="1" parent="1">
          <mxGeometry x="232" y="1197.5" width="40" height="30" as="geometry" />
        </mxCell>
        <mxCell id="r11OAuE-Dpr2aQKvOHdi-296" value="char[3]" style="text;html=1;align=center;verticalAlign=middle;resizable=0;points=[];autosize=1;strokeColor=none;fillColor=none;" vertex="1" parent="1">
          <mxGeometry x="225" y="1258.5" width="60" height="30" as="geometry" />
        </mxCell>
        <mxCell id="r11OAuE-Dpr2aQKvOHdi-297" value="" style="endArrow=classic;html=1;rounded=0;entryX=0;entryY=0;entryDx=0;entryDy=0;" edge="1" parent="1" target="r11OAuE-Dpr2aQKvOHdi-290">
          <mxGeometry width="50" height="50" relative="1" as="geometry">
            <mxPoint x="72" y="1246.5" as="sourcePoint" />
            <mxPoint x="139" y="1224.5" as="targetPoint" />
          </mxGeometry>
        </mxCell>
        <mxCell id="r11OAuE-Dpr2aQKvOHdi-298" value="" style="group" vertex="1" connectable="0" parent="1">
          <mxGeometry x="47" y="1436" width="59" height="88" as="geometry" />
        </mxCell>
        <mxCell id="r11OAuE-Dpr2aQKvOHdi-299" value="param" style="text;html=1;align=center;verticalAlign=middle;resizable=0;points=[];autosize=1;strokeColor=none;fillColor=none;" vertex="1" parent="r11OAuE-Dpr2aQKvOHdi-298">
          <mxGeometry x="-7" width="60" height="30" as="geometry" />
        </mxCell>
        <mxCell id="r11OAuE-Dpr2aQKvOHdi-300" value="" style="group" vertex="1" connectable="0" parent="r11OAuE-Dpr2aQKvOHdi-298">
          <mxGeometry y="24" width="59" height="64" as="geometry" />
        </mxCell>
        <mxCell id="r11OAuE-Dpr2aQKvOHdi-301" value="42" style="rounded=0;whiteSpace=wrap;html=1;fillColor=#1ba1e2;fontColor=#ffffff;strokeColor=#006EAF;" vertex="1" parent="r11OAuE-Dpr2aQKvOHdi-300">
          <mxGeometry width="46" height="40" as="geometry" />
        </mxCell>
        <mxCell id="r11OAuE-Dpr2aQKvOHdi-302" value="int" style="text;html=1;align=center;verticalAlign=middle;resizable=0;points=[];autosize=1;strokeColor=none;fillColor=none;" vertex="1" parent="r11OAuE-Dpr2aQKvOHdi-300">
          <mxGeometry x="19" y="34" width="40" height="30" as="geometry" />
        </mxCell>
        <mxCell id="r11OAuE-Dpr2aQKvOHdi-386" style="edgeStyle=orthogonalEdgeStyle;rounded=0;orthogonalLoop=1;jettySize=auto;html=1;" edge="1" parent="1" source="r11OAuE-Dpr2aQKvOHdi-303" target="r11OAuE-Dpr2aQKvOHdi-276">
          <mxGeometry relative="1" as="geometry" />
        </mxCell>
        <mxCell id="r11OAuE-Dpr2aQKvOHdi-303" value="" style="rounded=0;whiteSpace=wrap;html=1;" vertex="1" parent="1">
          <mxGeometry x="27.5" y="1674" width="300.5" height="90" as="geometry" />
        </mxCell>
        <mxCell id="r11OAuE-Dpr2aQKvOHdi-304" value="foo#2: parameters" style="text;html=1;align=left;verticalAlign=middle;whiteSpace=wrap;rounded=0;" vertex="1" parent="1">
          <mxGeometry x="27.5" y="1644" width="108" height="30" as="geometry" />
        </mxCell>
        <mxCell id="r11OAuE-Dpr2aQKvOHdi-387" style="edgeStyle=orthogonalEdgeStyle;rounded=0;orthogonalLoop=1;jettySize=auto;html=1;entryX=0.496;entryY=0.997;entryDx=0;entryDy=0;entryPerimeter=0;" edge="1" parent="1" source="r11OAuE-Dpr2aQKvOHdi-305" target="r11OAuE-Dpr2aQKvOHdi-303">
          <mxGeometry relative="1" as="geometry" />
        </mxCell>
        <mxCell id="r11OAuE-Dpr2aQKvOHdi-305" value="" style="rounded=0;whiteSpace=wrap;html=1;" vertex="1" parent="1">
          <mxGeometry x="26" y="1791" width="300.5" height="90" as="geometry" />
        </mxCell>
        <mxCell id="r11OAuE-Dpr2aQKvOHdi-306" value="foo#2" style="text;html=1;align=left;verticalAlign=middle;whiteSpace=wrap;rounded=0;" vertex="1" parent="1">
          <mxGeometry x="27.5" y="1762" width="83.5" height="30" as="geometry" />
        </mxCell>
        <mxCell id="r11OAuE-Dpr2aQKvOHdi-307" value="" style="group" vertex="1" connectable="0" parent="1">
          <mxGeometry x="50.5" y="1792" width="57" height="89" as="geometry" />
        </mxCell>
        <mxCell id="r11OAuE-Dpr2aQKvOHdi-308" value="&lt;font style=&quot;font-size: 23px;&quot;&gt;●&lt;/font&gt;" style="rounded=0;whiteSpace=wrap;html=1;fillColor=#1ba1e2;fontColor=#ffffff;strokeColor=#006EAF;" vertex="1" parent="r11OAuE-Dpr2aQKvOHdi-307">
          <mxGeometry y="25" width="46" height="40" as="geometry" />
        </mxCell>
        <mxCell id="r11OAuE-Dpr2aQKvOHdi-309" value="b" style="text;html=1;align=center;verticalAlign=middle;resizable=0;points=[];autosize=1;strokeColor=none;fillColor=none;" vertex="1" parent="r11OAuE-Dpr2aQKvOHdi-307">
          <mxGeometry x="7" width="30" height="30" as="geometry" />
        </mxCell>
        <mxCell id="r11OAuE-Dpr2aQKvOHdi-310" value="int*" style="text;html=1;align=center;verticalAlign=middle;resizable=0;points=[];autosize=1;strokeColor=none;fillColor=none;" vertex="1" parent="r11OAuE-Dpr2aQKvOHdi-307">
          <mxGeometry x="17" y="59" width="40" height="30" as="geometry" />
        </mxCell>
        <mxCell id="r11OAuE-Dpr2aQKvOHdi-311" value="" style="group" vertex="1" connectable="0" parent="1">
          <mxGeometry x="147.5" y="1792" width="64" height="93" as="geometry" />
        </mxCell>
        <mxCell id="r11OAuE-Dpr2aQKvOHdi-312" value="" style="group" vertex="1" connectable="0" parent="r11OAuE-Dpr2aQKvOHdi-311">
          <mxGeometry y="24" width="64" height="69" as="geometry" />
        </mxCell>
        <mxCell id="r11OAuE-Dpr2aQKvOHdi-313" value="42" style="rounded=0;whiteSpace=wrap;html=1;fillColor=#a20025;fontColor=#ffffff;strokeColor=#6F0000;" vertex="1" parent="r11OAuE-Dpr2aQKvOHdi-312">
          <mxGeometry width="46" height="40" as="geometry" />
        </mxCell>
        <mxCell id="r11OAuE-Dpr2aQKvOHdi-314" value="" style="endArrow=classic;html=1;rounded=0;entryX=0;entryY=0;entryDx=0;entryDy=0;" edge="1" parent="1" target="r11OAuE-Dpr2aQKvOHdi-313">
          <mxGeometry width="50" height="50" relative="1" as="geometry">
            <mxPoint x="75.5" y="1837" as="sourcePoint" />
            <mxPoint x="147.5" y="1822" as="targetPoint" />
          </mxGeometry>
        </mxCell>
        <mxCell id="r11OAuE-Dpr2aQKvOHdi-315" value="" style="group" vertex="1" connectable="0" parent="1">
          <mxGeometry x="48.5" y="1673" width="59" height="88" as="geometry" />
        </mxCell>
        <mxCell id="r11OAuE-Dpr2aQKvOHdi-316" value="param" style="text;html=1;align=center;verticalAlign=middle;resizable=0;points=[];autosize=1;strokeColor=none;fillColor=none;" vertex="1" parent="r11OAuE-Dpr2aQKvOHdi-315">
          <mxGeometry x="-7" width="60" height="30" as="geometry" />
        </mxCell>
        <mxCell id="r11OAuE-Dpr2aQKvOHdi-317" value="" style="group" vertex="1" connectable="0" parent="r11OAuE-Dpr2aQKvOHdi-315">
          <mxGeometry y="24" width="59" height="64" as="geometry" />
        </mxCell>
        <mxCell id="r11OAuE-Dpr2aQKvOHdi-318" value="21" style="rounded=0;whiteSpace=wrap;html=1;fillColor=#1ba1e2;fontColor=#ffffff;strokeColor=#006EAF;" vertex="1" parent="r11OAuE-Dpr2aQKvOHdi-317">
          <mxGeometry width="46" height="40" as="geometry" />
        </mxCell>
        <mxCell id="r11OAuE-Dpr2aQKvOHdi-319" value="int" style="text;html=1;align=center;verticalAlign=middle;resizable=0;points=[];autosize=1;strokeColor=none;fillColor=none;" vertex="1" parent="r11OAuE-Dpr2aQKvOHdi-317">
          <mxGeometry x="19" y="34" width="40" height="30" as="geometry" />
        </mxCell>
        <mxCell id="r11OAuE-Dpr2aQKvOHdi-320" value="4. návrh" style="text;html=1;align=center;verticalAlign=middle;whiteSpace=wrap;rounded=0;" vertex="1" parent="1">
          <mxGeometry x="593" y="1140" width="60" height="30" as="geometry" />
        </mxCell>
        <mxCell id="r11OAuE-Dpr2aQKvOHdi-321" value="" style="rounded=0;whiteSpace=wrap;html=1;" vertex="1" parent="1">
          <mxGeometry x="475" y="1199" width="300" height="90" as="geometry" />
        </mxCell>
        <mxCell id="r11OAuE-Dpr2aQKvOHdi-322" value="global" style="text;html=1;align=left;verticalAlign=middle;whiteSpace=wrap;rounded=0;" vertex="1" parent="1">
          <mxGeometry x="474" y="1170" width="60" height="30" as="geometry" />
        </mxCell>
        <mxCell id="r11OAuE-Dpr2aQKvOHdi-389" style="edgeStyle=orthogonalEdgeStyle;rounded=0;orthogonalLoop=1;jettySize=auto;html=1;" edge="1" parent="1" source="r11OAuE-Dpr2aQKvOHdi-323" target="r11OAuE-Dpr2aQKvOHdi-321">
          <mxGeometry relative="1" as="geometry">
            <Array as="points">
              <mxPoint x="801" y="1363" />
              <mxPoint x="801" y="1260" />
            </Array>
          </mxGeometry>
        </mxCell>
        <mxCell id="r11OAuE-Dpr2aQKvOHdi-323" value="" style="rounded=0;whiteSpace=wrap;html=1;" vertex="1" parent="1">
          <mxGeometry x="475" y="1318" width="300" height="90" as="geometry" />
        </mxCell>
        <mxCell id="r11OAuE-Dpr2aQKvOHdi-324" value="" style="group" vertex="1" connectable="0" parent="1">
          <mxGeometry x="495" y="1318" width="57" height="89" as="geometry" />
        </mxCell>
        <mxCell id="r11OAuE-Dpr2aQKvOHdi-325" value="&lt;font style=&quot;font-size: 23px;&quot;&gt;●&lt;/font&gt;" style="rounded=0;whiteSpace=wrap;html=1;fillColor=#1ba1e2;fontColor=#ffffff;strokeColor=#006EAF;" vertex="1" parent="r11OAuE-Dpr2aQKvOHdi-324">
          <mxGeometry y="25" width="46" height="40" as="geometry" />
        </mxCell>
        <mxCell id="r11OAuE-Dpr2aQKvOHdi-326" value="ptr" style="text;html=1;align=center;verticalAlign=middle;resizable=0;points=[];autosize=1;strokeColor=none;fillColor=none;" vertex="1" parent="r11OAuE-Dpr2aQKvOHdi-324">
          <mxGeometry x="2" width="40" height="30" as="geometry" />
        </mxCell>
        <mxCell id="r11OAuE-Dpr2aQKvOHdi-327" value="int*" style="text;html=1;align=center;verticalAlign=middle;resizable=0;points=[];autosize=1;strokeColor=none;fillColor=none;" vertex="1" parent="r11OAuE-Dpr2aQKvOHdi-324">
          <mxGeometry x="17" y="59" width="40" height="30" as="geometry" />
        </mxCell>
        <mxCell id="r11OAuE-Dpr2aQKvOHdi-328" value="" style="endArrow=classic;html=1;rounded=0;entryX=0;entryY=0;entryDx=0;entryDy=0;" edge="1" parent="1" target="r11OAuE-Dpr2aQKvOHdi-332">
          <mxGeometry width="50" height="50" relative="1" as="geometry">
            <mxPoint x="521" y="1363" as="sourcePoint" />
            <mxPoint x="565" y="1333" as="targetPoint" />
          </mxGeometry>
        </mxCell>
        <mxCell id="r11OAuE-Dpr2aQKvOHdi-329" value="" style="group" vertex="1" connectable="0" parent="1">
          <mxGeometry x="592" y="1319" width="59" height="88" as="geometry" />
        </mxCell>
        <mxCell id="r11OAuE-Dpr2aQKvOHdi-330" value="a" style="text;html=1;align=center;verticalAlign=middle;resizable=0;points=[];autosize=1;strokeColor=none;fillColor=none;" vertex="1" parent="r11OAuE-Dpr2aQKvOHdi-329">
          <mxGeometry x="8" width="30" height="30" as="geometry" />
        </mxCell>
        <mxCell id="r11OAuE-Dpr2aQKvOHdi-331" value="" style="group" vertex="1" connectable="0" parent="r11OAuE-Dpr2aQKvOHdi-329">
          <mxGeometry y="24" width="59" height="64" as="geometry" />
        </mxCell>
        <mxCell id="r11OAuE-Dpr2aQKvOHdi-332" value="42" style="rounded=0;whiteSpace=wrap;html=1;fillColor=#1ba1e2;fontColor=#ffffff;strokeColor=#006EAF;" vertex="1" parent="r11OAuE-Dpr2aQKvOHdi-331">
          <mxGeometry width="46" height="40" as="geometry" />
        </mxCell>
        <mxCell id="r11OAuE-Dpr2aQKvOHdi-333" value="int" style="text;html=1;align=center;verticalAlign=middle;resizable=0;points=[];autosize=1;strokeColor=none;fillColor=none;" vertex="1" parent="r11OAuE-Dpr2aQKvOHdi-331">
          <mxGeometry x="19" y="34" width="40" height="30" as="geometry" />
        </mxCell>
        <mxCell id="r11OAuE-Dpr2aQKvOHdi-334" value="main" style="text;html=1;align=left;verticalAlign=middle;whiteSpace=wrap;rounded=0;" vertex="1" parent="1">
          <mxGeometry x="474" y="1289" width="60" height="30" as="geometry" />
        </mxCell>
        <mxCell id="r11OAuE-Dpr2aQKvOHdi-388" style="edgeStyle=orthogonalEdgeStyle;rounded=0;orthogonalLoop=1;jettySize=auto;html=1;" edge="1" parent="1" source="r11OAuE-Dpr2aQKvOHdi-335" target="r11OAuE-Dpr2aQKvOHdi-321">
          <mxGeometry relative="1" as="geometry">
            <Array as="points">
              <mxPoint x="811" y="1481" />
              <mxPoint x="811" y="1244" />
            </Array>
          </mxGeometry>
        </mxCell>
        <mxCell id="r11OAuE-Dpr2aQKvOHdi-335" value="" style="rounded=0;whiteSpace=wrap;html=1;" vertex="1" parent="1">
          <mxGeometry x="475" y="1436" width="300" height="90" as="geometry" />
        </mxCell>
        <mxCell id="r11OAuE-Dpr2aQKvOHdi-336" value="foo#1: parameters" style="text;html=1;align=left;verticalAlign=middle;whiteSpace=wrap;rounded=0;" vertex="1" parent="1">
          <mxGeometry x="474" y="1407" width="301" height="30" as="geometry" />
        </mxCell>
        <mxCell id="r11OAuE-Dpr2aQKvOHdi-390" style="edgeStyle=orthogonalEdgeStyle;rounded=0;orthogonalLoop=1;jettySize=auto;html=1;" edge="1" parent="1" source="r11OAuE-Dpr2aQKvOHdi-337" target="r11OAuE-Dpr2aQKvOHdi-335">
          <mxGeometry relative="1" as="geometry">
            <Array as="points">
              <mxPoint x="811" y="1599" />
              <mxPoint x="811" y="1520" />
            </Array>
          </mxGeometry>
        </mxCell>
        <mxCell id="r11OAuE-Dpr2aQKvOHdi-337" value="" style="rounded=0;whiteSpace=wrap;html=1;" vertex="1" parent="1">
          <mxGeometry x="475" y="1554" width="300" height="90" as="geometry" />
        </mxCell>
        <mxCell id="r11OAuE-Dpr2aQKvOHdi-338" value="foo#1" style="text;html=1;align=left;verticalAlign=middle;whiteSpace=wrap;rounded=0;" vertex="1" parent="1">
          <mxGeometry x="474" y="1525" width="301" height="30" as="geometry" />
        </mxCell>
        <mxCell id="r11OAuE-Dpr2aQKvOHdi-339" value="" style="group" vertex="1" connectable="0" parent="1">
          <mxGeometry x="497" y="1555" width="57" height="89" as="geometry" />
        </mxCell>
        <mxCell id="r11OAuE-Dpr2aQKvOHdi-340" value="&lt;font style=&quot;font-size: 23px;&quot;&gt;●&lt;/font&gt;" style="rounded=0;whiteSpace=wrap;html=1;fillColor=#1ba1e2;fontColor=#ffffff;strokeColor=#006EAF;" vertex="1" parent="r11OAuE-Dpr2aQKvOHdi-339">
          <mxGeometry y="25" width="46" height="40" as="geometry" />
        </mxCell>
        <mxCell id="r11OAuE-Dpr2aQKvOHdi-341" value="b" style="text;html=1;align=center;verticalAlign=middle;resizable=0;points=[];autosize=1;strokeColor=none;fillColor=none;" vertex="1" parent="r11OAuE-Dpr2aQKvOHdi-339">
          <mxGeometry x="7" width="30" height="30" as="geometry" />
        </mxCell>
        <mxCell id="r11OAuE-Dpr2aQKvOHdi-342" value="int*" style="text;html=1;align=center;verticalAlign=middle;resizable=0;points=[];autosize=1;strokeColor=none;fillColor=none;" vertex="1" parent="r11OAuE-Dpr2aQKvOHdi-339">
          <mxGeometry x="17" y="59" width="40" height="30" as="geometry" />
        </mxCell>
        <mxCell id="r11OAuE-Dpr2aQKvOHdi-343" value="" style="group" vertex="1" connectable="0" parent="1">
          <mxGeometry x="594" y="1555" width="64" height="93" as="geometry" />
        </mxCell>
        <mxCell id="r11OAuE-Dpr2aQKvOHdi-344" value="" style="group" vertex="1" connectable="0" parent="r11OAuE-Dpr2aQKvOHdi-343">
          <mxGeometry y="24" width="64" height="69" as="geometry" />
        </mxCell>
        <mxCell id="r11OAuE-Dpr2aQKvOHdi-345" value="42" style="rounded=0;whiteSpace=wrap;html=1;fillColor=#a20025;fontColor=#ffffff;strokeColor=#6F0000;" vertex="1" parent="r11OAuE-Dpr2aQKvOHdi-344">
          <mxGeometry width="46" height="40" as="geometry" />
        </mxCell>
        <mxCell id="r11OAuE-Dpr2aQKvOHdi-346" value="" style="endArrow=classic;html=1;rounded=0;entryX=0;entryY=0;entryDx=0;entryDy=0;" edge="1" parent="1" target="r11OAuE-Dpr2aQKvOHdi-345">
          <mxGeometry width="50" height="50" relative="1" as="geometry">
            <mxPoint x="522" y="1600" as="sourcePoint" />
            <mxPoint x="594" y="1585" as="targetPoint" />
          </mxGeometry>
        </mxCell>
        <mxCell id="r11OAuE-Dpr2aQKvOHdi-347" value="" style="group" vertex="1" connectable="0" parent="1">
          <mxGeometry x="495" y="1200" width="62" height="89" as="geometry" />
        </mxCell>
        <mxCell id="r11OAuE-Dpr2aQKvOHdi-348" value="&lt;font style=&quot;font-size: 23px;&quot;&gt;●&lt;/font&gt;" style="rounded=0;whiteSpace=wrap;html=1;fillColor=#60a917;fontColor=#ffffff;strokeColor=#2D7600;" vertex="1" parent="r11OAuE-Dpr2aQKvOHdi-347">
          <mxGeometry y="25" width="46" height="40" as="geometry" />
        </mxCell>
        <mxCell id="r11OAuE-Dpr2aQKvOHdi-349" value="h" style="text;html=1;align=center;verticalAlign=middle;resizable=0;points=[];autosize=1;strokeColor=none;fillColor=none;" vertex="1" parent="r11OAuE-Dpr2aQKvOHdi-347">
          <mxGeometry x="7" width="30" height="30" as="geometry" />
        </mxCell>
        <mxCell id="r11OAuE-Dpr2aQKvOHdi-350" value="char*" style="text;html=1;align=center;verticalAlign=middle;resizable=0;points=[];autosize=1;strokeColor=none;fillColor=none;" vertex="1" parent="r11OAuE-Dpr2aQKvOHdi-347">
          <mxGeometry x="12" y="59" width="50" height="30" as="geometry" />
        </mxCell>
        <mxCell id="r11OAuE-Dpr2aQKvOHdi-351" value="&#39;A&#39;" style="rounded=0;whiteSpace=wrap;html=1;fillColor=#60a917;fontColor=#ffffff;strokeColor=#2D7600;" vertex="1" parent="1">
          <mxGeometry x="585" y="1224.5" width="46" height="40" as="geometry" />
        </mxCell>
        <mxCell id="r11OAuE-Dpr2aQKvOHdi-352" value="&#39;B&#39;" style="rounded=0;whiteSpace=wrap;html=1;fillColor=#60a917;fontColor=#ffffff;strokeColor=#2D7600;" vertex="1" parent="1">
          <mxGeometry x="631" y="1224.5" width="46" height="40" as="geometry" />
        </mxCell>
        <mxCell id="r11OAuE-Dpr2aQKvOHdi-353" value="&#39;\0&#39;" style="rounded=0;whiteSpace=wrap;html=1;fillColor=#60a917;fontColor=#ffffff;strokeColor=#2D7600;" vertex="1" parent="1">
          <mxGeometry x="677" y="1224.5" width="46" height="40" as="geometry" />
        </mxCell>
        <mxCell id="r11OAuE-Dpr2aQKvOHdi-354" value="h[0]" style="text;html=1;align=center;verticalAlign=middle;resizable=0;points=[];autosize=1;strokeColor=none;fillColor=none;" vertex="1" parent="1">
          <mxGeometry x="588" y="1197.5" width="40" height="30" as="geometry" />
        </mxCell>
        <mxCell id="r11OAuE-Dpr2aQKvOHdi-355" value="h[1]" style="text;html=1;align=center;verticalAlign=middle;resizable=0;points=[];autosize=1;strokeColor=none;fillColor=none;" vertex="1" parent="1">
          <mxGeometry x="634" y="1197.5" width="40" height="30" as="geometry" />
        </mxCell>
        <mxCell id="r11OAuE-Dpr2aQKvOHdi-356" value="h[2]" style="text;html=1;align=center;verticalAlign=middle;resizable=0;points=[];autosize=1;strokeColor=none;fillColor=none;" vertex="1" parent="1">
          <mxGeometry x="680" y="1197.5" width="40" height="30" as="geometry" />
        </mxCell>
        <mxCell id="r11OAuE-Dpr2aQKvOHdi-357" value="char[3]" style="text;html=1;align=center;verticalAlign=middle;resizable=0;points=[];autosize=1;strokeColor=none;fillColor=none;" vertex="1" parent="1">
          <mxGeometry x="673" y="1258.5" width="60" height="30" as="geometry" />
        </mxCell>
        <mxCell id="r11OAuE-Dpr2aQKvOHdi-358" value="" style="endArrow=classic;html=1;rounded=0;entryX=0;entryY=0;entryDx=0;entryDy=0;" edge="1" parent="1" target="r11OAuE-Dpr2aQKvOHdi-351">
          <mxGeometry width="50" height="50" relative="1" as="geometry">
            <mxPoint x="520" y="1246.5" as="sourcePoint" />
            <mxPoint x="587" y="1224.5" as="targetPoint" />
          </mxGeometry>
        </mxCell>
        <mxCell id="r11OAuE-Dpr2aQKvOHdi-359" value="" style="group" vertex="1" connectable="0" parent="1">
          <mxGeometry x="495" y="1436" width="59" height="88" as="geometry" />
        </mxCell>
        <mxCell id="r11OAuE-Dpr2aQKvOHdi-360" value="param" style="text;html=1;align=center;verticalAlign=middle;resizable=0;points=[];autosize=1;strokeColor=none;fillColor=none;" vertex="1" parent="r11OAuE-Dpr2aQKvOHdi-359">
          <mxGeometry x="-7" width="60" height="30" as="geometry" />
        </mxCell>
        <mxCell id="r11OAuE-Dpr2aQKvOHdi-361" value="" style="group" vertex="1" connectable="0" parent="r11OAuE-Dpr2aQKvOHdi-359">
          <mxGeometry y="24" width="59" height="64" as="geometry" />
        </mxCell>
        <mxCell id="r11OAuE-Dpr2aQKvOHdi-362" value="42" style="rounded=0;whiteSpace=wrap;html=1;fillColor=#1ba1e2;fontColor=#ffffff;strokeColor=#006EAF;" vertex="1" parent="r11OAuE-Dpr2aQKvOHdi-361">
          <mxGeometry width="46" height="40" as="geometry" />
        </mxCell>
        <mxCell id="r11OAuE-Dpr2aQKvOHdi-363" value="int" style="text;html=1;align=center;verticalAlign=middle;resizable=0;points=[];autosize=1;strokeColor=none;fillColor=none;" vertex="1" parent="r11OAuE-Dpr2aQKvOHdi-361">
          <mxGeometry x="19" y="34" width="40" height="30" as="geometry" />
        </mxCell>
        <mxCell id="r11OAuE-Dpr2aQKvOHdi-391" style="edgeStyle=orthogonalEdgeStyle;rounded=0;orthogonalLoop=1;jettySize=auto;html=1;" edge="1" parent="1" source="r11OAuE-Dpr2aQKvOHdi-364" target="r11OAuE-Dpr2aQKvOHdi-321">
          <mxGeometry relative="1" as="geometry">
            <Array as="points">
              <mxPoint x="831" y="1718" />
              <mxPoint x="831" y="1230" />
            </Array>
          </mxGeometry>
        </mxCell>
        <mxCell id="r11OAuE-Dpr2aQKvOHdi-364" value="" style="rounded=0;whiteSpace=wrap;html=1;" vertex="1" parent="1">
          <mxGeometry x="476.5" y="1673" width="300" height="90" as="geometry" />
        </mxCell>
        <mxCell id="r11OAuE-Dpr2aQKvOHdi-365" value="foo#2: parameters" style="text;html=1;align=left;verticalAlign=middle;whiteSpace=wrap;rounded=0;" vertex="1" parent="1">
          <mxGeometry x="475.5" y="1644" width="301" height="30" as="geometry" />
        </mxCell>
        <mxCell id="r11OAuE-Dpr2aQKvOHdi-392" style="edgeStyle=orthogonalEdgeStyle;rounded=0;orthogonalLoop=1;jettySize=auto;html=1;" edge="1" parent="1" source="r11OAuE-Dpr2aQKvOHdi-366" target="r11OAuE-Dpr2aQKvOHdi-364">
          <mxGeometry relative="1" as="geometry">
            <Array as="points">
              <mxPoint x="831" y="1836" />
              <mxPoint x="831" y="1755" />
            </Array>
          </mxGeometry>
        </mxCell>
        <mxCell id="r11OAuE-Dpr2aQKvOHdi-366" value="" style="rounded=0;whiteSpace=wrap;html=1;" vertex="1" parent="1">
          <mxGeometry x="476.5" y="1791" width="300" height="90" as="geometry" />
        </mxCell>
        <mxCell id="r11OAuE-Dpr2aQKvOHdi-367" value="foo#2" style="text;html=1;align=left;verticalAlign=middle;whiteSpace=wrap;rounded=0;" vertex="1" parent="1">
          <mxGeometry x="475.5" y="1762" width="301" height="30" as="geometry" />
        </mxCell>
        <mxCell id="r11OAuE-Dpr2aQKvOHdi-368" value="" style="group" vertex="1" connectable="0" parent="1">
          <mxGeometry x="498.5" y="1792" width="57" height="89" as="geometry" />
        </mxCell>
        <mxCell id="r11OAuE-Dpr2aQKvOHdi-369" value="&lt;font style=&quot;font-size: 23px;&quot;&gt;●&lt;/font&gt;" style="rounded=0;whiteSpace=wrap;html=1;fillColor=#1ba1e2;fontColor=#ffffff;strokeColor=#006EAF;" vertex="1" parent="r11OAuE-Dpr2aQKvOHdi-368">
          <mxGeometry y="25" width="46" height="40" as="geometry" />
        </mxCell>
        <mxCell id="r11OAuE-Dpr2aQKvOHdi-370" value="b" style="text;html=1;align=center;verticalAlign=middle;resizable=0;points=[];autosize=1;strokeColor=none;fillColor=none;" vertex="1" parent="r11OAuE-Dpr2aQKvOHdi-368">
          <mxGeometry x="7" width="30" height="30" as="geometry" />
        </mxCell>
        <mxCell id="r11OAuE-Dpr2aQKvOHdi-371" value="int*" style="text;html=1;align=center;verticalAlign=middle;resizable=0;points=[];autosize=1;strokeColor=none;fillColor=none;" vertex="1" parent="r11OAuE-Dpr2aQKvOHdi-368">
          <mxGeometry x="17" y="59" width="40" height="30" as="geometry" />
        </mxCell>
        <mxCell id="r11OAuE-Dpr2aQKvOHdi-372" value="" style="group" vertex="1" connectable="0" parent="1">
          <mxGeometry x="595.5" y="1792" width="64" height="93" as="geometry" />
        </mxCell>
        <mxCell id="r11OAuE-Dpr2aQKvOHdi-373" value="" style="group" vertex="1" connectable="0" parent="r11OAuE-Dpr2aQKvOHdi-372">
          <mxGeometry y="24" width="64" height="69" as="geometry" />
        </mxCell>
        <mxCell id="r11OAuE-Dpr2aQKvOHdi-374" value="42" style="rounded=0;whiteSpace=wrap;html=1;fillColor=#a20025;fontColor=#ffffff;strokeColor=#6F0000;" vertex="1" parent="r11OAuE-Dpr2aQKvOHdi-373">
          <mxGeometry width="46" height="40" as="geometry" />
        </mxCell>
        <mxCell id="r11OAuE-Dpr2aQKvOHdi-375" value="" style="endArrow=classic;html=1;rounded=0;entryX=0;entryY=0;entryDx=0;entryDy=0;" edge="1" parent="1" target="r11OAuE-Dpr2aQKvOHdi-374">
          <mxGeometry width="50" height="50" relative="1" as="geometry">
            <mxPoint x="523.5" y="1837" as="sourcePoint" />
            <mxPoint x="595.5" y="1822" as="targetPoint" />
          </mxGeometry>
        </mxCell>
        <mxCell id="r11OAuE-Dpr2aQKvOHdi-376" value="" style="group" vertex="1" connectable="0" parent="1">
          <mxGeometry x="496.5" y="1673" width="59" height="88" as="geometry" />
        </mxCell>
        <mxCell id="r11OAuE-Dpr2aQKvOHdi-377" value="param" style="text;html=1;align=center;verticalAlign=middle;resizable=0;points=[];autosize=1;strokeColor=none;fillColor=none;" vertex="1" parent="r11OAuE-Dpr2aQKvOHdi-376">
          <mxGeometry x="-7" width="60" height="30" as="geometry" />
        </mxCell>
        <mxCell id="r11OAuE-Dpr2aQKvOHdi-378" value="" style="group" vertex="1" connectable="0" parent="r11OAuE-Dpr2aQKvOHdi-376">
          <mxGeometry y="24" width="59" height="64" as="geometry" />
        </mxCell>
        <mxCell id="r11OAuE-Dpr2aQKvOHdi-379" value="21" style="rounded=0;whiteSpace=wrap;html=1;fillColor=#1ba1e2;fontColor=#ffffff;strokeColor=#006EAF;" vertex="1" parent="r11OAuE-Dpr2aQKvOHdi-378">
          <mxGeometry width="46" height="40" as="geometry" />
        </mxCell>
        <mxCell id="r11OAuE-Dpr2aQKvOHdi-380" value="int" style="text;html=1;align=center;verticalAlign=middle;resizable=0;points=[];autosize=1;strokeColor=none;fillColor=none;" vertex="1" parent="r11OAuE-Dpr2aQKvOHdi-378">
          <mxGeometry x="19" y="34" width="40" height="30" as="geometry" />
        </mxCell>
        <mxCell id="r11OAuE-Dpr2aQKvOHdi-275" value="foo#1: parameters" style="text;html=1;align=left;verticalAlign=middle;whiteSpace=wrap;rounded=0;" vertex="1" parent="1">
          <mxGeometry x="24.5" y="1410" width="301" height="30" as="geometry" />
        </mxCell>
      </root>
    </mxGraphModel>
  </diagram>
</mxfile>
